<?xml version="1.0" encoding="UTF-8" standalone="no"?>
<!-- Created with Inkscape (http://www.inkscape.org/) -->

<svg
   width="1024"
   height="1024"
   viewBox="0 0 270.93333 270.93333"
   version="1.1"
   id="svg1"
   xml:space="preserve"
   inkscape:version="1.4.4 (dcaf3e7d9e, 2026-05-05)"
   sodipodi:docname="icon.svg"
   xmlns:inkscape="http://www.inkscape.org/namespaces/inkscape"
   xmlns:sodipodi="http://sodipodi.sourceforge.net/DTD/sodipodi-0.dtd"
   xmlns="http://www.w3.org/2000/svg"
   xmlns:svg="http://www.w3.org/2000/svg"><sodipodi:namedview
     id="namedview1"
     pagecolor="#ffffff"
     bordercolor="#000000"
     borderopacity="0.25"
     inkscape:showpageshadow="2"
     inkscape:pageopacity="0.0"
     inkscape:pagecheckerboard="0"
     inkscape:deskcolor="#d1d1d1"
     inkscape:document-units="mm"
     inkscape:zoom="0.58520328"
     inkscape:cx="368.24811"
     inkscape:cy="614.31645"
     inkscape:window-width="2560"
     inkscape:window-height="1377"
     inkscape:window-x="0"
     inkscape:window-y="0"
     inkscape:window-maximized="1"
     inkscape:current-layer="layer1" /><defs
     id="defs1" /><g
     inkscape:label="Layer 1"
     inkscape:groupmode="layer"
     id="layer1"><path
       style="fill:#f86844;fill-opacity:1;stroke-width:0.695416"
       d="m 175.0649,27.948257 -8.27196,8.176761 -13.76901,-3.756966 0.76297,-24.9862094 z"
       id="path1-2-7-3"
       sodipodi:nodetypes="ccccc"
       transform="matrix(1.3649896,0,0,1.3649896,-9.7790463,49.783775)" /><path
       style="fill:#83bd9e;fill-opacity:1;stroke-width:0.695416"
       d="m 205.50599,57.397587 -56.98503,0.06224 28.38219,-28.611784 z"
       id="path1-2-9-1"
       sodipodi:nodetypes="cccc"
       transform="matrix(1.3649896,0,0,1.3649896,-9.7790463,49.783775)" /><path
       style="fill:#83bd9e;fill-opacity:1;stroke-width:0.695416"
       d="m 165.50514,37.684489 -49.58161,50.067809 -0.0924,-63.901287 z"
       id="path1-2-0-9"
       sodipodi:nodetypes="cccc"
       transform="matrix(1.3649896,0,0,1.3649896,-9.7790463,49.783775)" /><path
       style="fill:#83bd9e;fill-opacity:1;stroke-width:0.695416"
       d="m 155.54478,93.255058 -36.94771,-5.28505 15.76556,-15.78315 z"
       id="path1-2-1-4"
       sodipodi:nodetypes="cccc"
       transform="matrix(1.3649896,0,0,1.3649896,-9.7790463,49.783775)" /><path
       style="fill:#83bd9e;fill-opacity:1;stroke-width:0.695416"
       d="m 57.841362,85.366998 -0.0114,16.676982 -50.5201026,16.11783 z"
       id="path1-2-6-7"
       sodipodi:nodetypes="cccc"
       transform="matrix(1.3649896,0,0,1.3649896,-9.7790463,49.783775)" /><path
       style="fill:#83bd9e;fill-opacity:1;stroke-width:0.695416"
       d="m 114.04996,24.704697 0.059,91.012753 L 59.538632,79.913668 C 77.725873,61.514678 95.894584,43.135162 114.04998,24.704697 Z"
       id="path1-8"
       sodipodi:nodetypes="cccc"
       transform="matrix(1.3649896,0,0,1.3649896,-9.7790463,49.783775)" /><path
       style="fill:#83bd9e;fill-opacity:1;stroke-width:0.695416"
       d="m 108.55848,114.32573 -48.967499,0.10153 -0.03289,-31.952422 z"
       id="path1-2-4"
       sodipodi:nodetypes="cccc"
       transform="matrix(1.3649896,0,0,1.3649896,-9.7790463,49.783775)" /></g></svg>
